<svg width="143" height="51" viewBox="0 0 143 51" fill="none" xmlns="http://www.w3.org/2000/svg">
<path d="M92.2642 39V24.4545H98.0028C99.1013 24.4545 100.039 24.651 100.815 25.044C101.597 25.4323 102.191 25.9839 102.598 26.6989C103.01 27.4091 103.216 28.2448 103.216 29.206C103.216 30.1719 103.008 31.0028 102.591 31.6989C102.174 32.3902 101.571 32.9205 100.78 33.2898C99.9938 33.6591 99.0421 33.8438 97.9247 33.8438H94.0824V31.3722H97.4276C98.0147 31.3722 98.5024 31.2917 98.8906 31.1307C99.2789 30.9697 99.5677 30.7282 99.7571 30.4062C99.9512 30.0843 100.048 29.6842 100.048 29.206C100.048 28.723 99.9512 28.3158 99.7571 27.9844C99.5677 27.6529 99.2765 27.402 98.8835 27.2315C98.4953 27.0563 98.0052 26.9688 97.4134 26.9688H95.3395V39H92.2642ZM100.119 32.3807L103.734 39H100.339L96.8026 32.3807H100.119ZM107.896 39H104.601L109.622 24.4545H113.585L118.599 39H115.304L111.661 27.7784H111.547L107.896 39ZM107.69 33.2827H115.474V35.6832H107.69V33.2827ZM118.019 26.9901V24.4545H129.965V26.9901H125.512V39H122.472V26.9901H118.019ZM131.932 39V24.4545H141.733V26.9901H135.007V30.456H141.229V32.9915H135.007V36.4645H141.762V39H131.932Z" fill="#FE3F3F"/>
<path d="M21.2642 39V24.4545H30.8949V26.9901H24.3395V30.456H30.2557V32.9915H24.3395V39H21.2642ZM32.9634 39V24.4545H38.7021C39.8005 24.4545 40.738 24.651 41.5146 25.044C42.2958 25.4323 42.89 25.9839 43.2972 26.6989C43.7092 27.4091 43.9151 28.2448 43.9151 29.206C43.9151 30.1719 43.7068 31.0028 43.2901 31.6989C42.8735 32.3902 42.2698 32.9205 41.479 33.2898C40.6931 33.6591 39.7414 33.8438 38.6239 33.8438H34.7816V31.3722H38.1268C38.7139 31.3722 39.2016 31.2917 39.5898 31.1307C39.9781 30.9697 40.2669 30.7282 40.4563 30.4062C40.6504 30.0843 40.7475 29.6842 40.7475 29.206C40.7475 28.723 40.6504 28.3158 40.4563 27.9844C40.2669 27.6529 39.9757 27.402 39.5827 27.2315C39.1945 27.0563 38.7044 26.9688 38.1126 26.9688H36.0387V39H32.9634ZM40.8185 32.3807L44.4336 39H41.0387L37.5018 32.3807H40.8185ZM48.5955 39H45.3001L50.3214 24.4545H54.2844L59.2987 39H56.0032L52.3597 27.7784H52.2461L48.5955 39ZM48.3896 33.2827H56.1737V35.6832H48.3896V33.2827ZM61.0494 24.4545H64.842L68.8477 34.2273H69.0181L73.0238 24.4545H76.8164V39H73.8335V29.5327H73.7127L69.9485 38.929H67.9173L64.1531 29.4972H64.0323V39H61.0494V24.4545ZM79.3501 39V24.4545H89.1513V26.9901H82.4254V30.456H88.647V32.9915H82.4254V36.4645H89.1797V39H79.3501Z" fill="#FE3F3F"/>
<path d="M42 20.9268V3H3V48H42" stroke="#FE3F3F" stroke-width="5"/>
</svg>
